<svg xmlns="http://www.w3.org/2000/svg" width="1600" height="900" fill="none"><g stroke="#444" stroke-opacity=".2" clip-path="url(#a)"><path d="M0 0v900M100 0v900M200 0v900M300 0v900M400 0v900M500 0v900M600 0v900M700 0v900M800 0v900M900 0v900M1000 0v900M1100 0v900M1200 0v900M1300 0v900M1400 0v900M1500 0v900M1600 0v900M0 100.773h1600M0 .773h1600M0 200.773h1600M0 300.773h1600M0 400.773h1600M0 500.773h1600M0 600.773h1600M0 700.773h1600M0 800.773h1600"/></g><defs><clipPath id="a"><path fill="#fff" d="M0 0h1600v900H0z"/></clipPath></defs></svg>